PathFileType	4	(X/Y/Z)	 s08c0203.trc
DataRate	CameraRate	NumFrames	NumMarkers	Units	OrigDataRate	OrigDataStartFrame	OrigNumFrames
200	200	6	50	mm	200	751	2000
Frame#	Time	racr			lacr			c7			jug			rlel			rdr			llel			ldr			s2			lic			ric			lasi			rasi			rpsi			lpsi			rgt			lgt			rth1			rth2			rth3			rth4			rlfc			rmfc			rsh1			rsh2			rsh3			rsh4			rlmal			rmmal			rcal			rtoe			rmt5			lth1			lth2			lth4			lth3			llfc			lmfc			llmal			lmmal			lcal			lmt5			lsh1			lsh2			lsh3			lsh4			ltoe			SBIKE			LBIKE			RBIKE			
		X1	Y1	Z1	X2	Y2	Z2	X3	Y3	Z3	X4	Y4	Z4	X5	Y5	Z5	X6	Y6	Z6	X7	Y7	Z7	X8	Y8	Z8	X9	Y9	Z9	X10	Y10	Z10	X11	Y11	Z11	X12	Y12	Z12	X13	Y13	Z13	X14	Y14	Z14	X15	Y15	Z15	X16	Y16	Z16	X17	Y17	Z17	X18	Y18	Z18	X19	Y19	Z19	X20	Y20	Z20	X21	Y21	Z21	X22	Y22	Z22	X23	Y23	Z23	X24	Y24	Z24	X25	Y25	Z25	X26	Y26	Z26	X27	Y27	Z27	X28	Y28	Z28	X29	Y29	Z29	X30	Y30	Z30	X31	Y31	Z31	X32	Y32	Z32	X33	Y33	Z33	X34	Y34	Z34	X35	Y35	Z35	X36	Y36	Z36	X37	Y37	Z37	X38	Y38	Z38	X39	Y39	Z39	X40	Y40	Z40	X41	Y41	Z41	X42	Y42	Z42	X43	Y43	Z43	X44	Y44	Z44	X45	Y45	Z45	X46	Y46	Z46	X47	Y47	Z47	X48	Y48	Z48	X49	Y49	Z49	X50	Y50	Z50	
751	3.7550	530.541071	1382.290594	-87.155862	496.066178	1312.537376	-418.668018	480.968712	1441.669924	-262.885772	445.354775	1286.740177	-231.925052	574.088573	1156.313796	56.598036	746.110303	929.512399	-44.771909	509.941607	1047.431716	-516.853885	734.408126	921.130858	-397.343087	-47.635083	1194.225441	-179.618500	96.900126	1209.092278	-334.491980	121.988105	1211.870641	-15.824545	132.814583	1170.217947	-292.146891	145.097647	1142.968720	-50.155289	-11.013711	1231.656923	-125.063164	-24.092382	1242.958005	-217.402744	39.298877	1070.942533	-5.389783	83.366327	1121.979338	-373.860951	127.666848	918.574642	-0.145616	185.396432	851.137492	-6.624145	201.995269	767.510559	-23.985402	218.576094	867.787088	-11.900537	257.419138	663.819992	-43.490797	234.404335	651.036052	-149.861295	226.506949	533.702512	-13.659702	254.483899	450.781315	-32.806900	236.183564	366.245094	-42.440695	282.450935	457.038160	-62.197179	236.472067	245.542024	-53.732989	248.384386	270.480265	-142.811474	163.083453	213.922547	-101.899875	462.920785	215.545654	-100.148233	373.879211	177.945030	-35.549348	194.507793	1052.165180	-370.206454	279.344140	1033.583062	-358.521200	292.583019	1061.453409	-338.325647	345.973452	974.476224	-359.786265	424.930580	879.239203	-339.703174	415.255857	839.513193	-233.776039	120.561295	598.431049	-383.859446	152.487965	590.373871	-299.690197	52.533342	612.276269	-345.354747	184.839293	446.234632	-413.214559	342.762891	791.840899	-371.089879	292.537820	721.942140	-365.736056	214.566555	682.252935	-374.428657	309.670393	701.688642	-337.579141	266.856256	417.888868	-343.333147	-212.589652	919.043288	-231.640192	-6.629465	85.253490	-425.948517	-9.485756	80.007083	-27.804486	
752	3.7600	531.308311	1383.050393	-92.512057	494.570169	1312.633923	-422.727190	481.003768	1441.718873	-266.347519	445.396700	1286.878790	-234.929590	577.221550	1158.880740	54.120854	746.316804	929.551340	-44.870647	507.903347	1045.663983	-516.632283	734.279470	921.865428	-397.383170	-46.693142	1195.384635	-175.944012	95.638535	1211.188791	-332.299931	126.159605	1211.408594	-14.856961	132.238166	1171.961701	-290.352755	147.399874	1142.085826	-49.239754	-13.858482	1234.009782	-120.490187	-23.670994	1244.224314	-213.321904	40.496196	1071.316564	-3.548309	83.385385	1126.581851	-372.003175	124.182814	916.719412	0.996210	180.255911	847.949162	-4.571635	194.516425	763.792920	-21.478183	213.666905	863.771683	-9.969040	247.382166	659.079573	-42.129950	223.511281	646.606801	-149.178863	216.454071	528.970490	-12.356928	244.316562	446.050490	-31.492830	227.058204	361.674344	-41.475525	273.250624	452.707114	-60.446063	228.378085	240.872347	-53.225749	240.849646	266.247913	-141.847441	155.213538	210.403761	-101.432630	455.078261	207.795733	-100.261639	365.535659	171.383265	-35.501663	194.663647	1058.172359	-368.539368	279.772924	1040.856085	-357.193340	292.479794	1068.553535	-336.502187	347.208621	982.980742	-359.857180	427.944360	887.208861	-340.009620	419.312544	847.143998	-234.359900	125.845463	604.402939	-383.164586	157.130569	597.069304	-299.451241	57.145680	616.717899	-344.935867	193.330191	453.791936	-412.676640	346.331051	799.862184	-370.633443	296.497503	729.604697	-365.507836	218.971913	689.255537	-373.913927	314.370404	709.522745	-337.172536	275.906906	427.374473	-342.905154	-216.063082	919.636103	-235.024563	-6.667581	85.489793	-425.873416	-9.531403	80.316516	-27.604532	
753	3.7650	531.891373	1383.637990	-97.926157	492.927309	1312.828936	-425.826979	481.020535	1441.574015	-269.551250	445.250109	1286.861589	-237.689066	580.215780	1161.143443	51.814376	746.777362	929.540956	-44.855524	506.092183	1044.124616	-516.282357	733.909845	922.555191	-397.274057	-45.627294	1196.648656	-172.615345	94.415953	1213.302648	-330.307730	130.051056	1211.037928	-14.185386	131.722957	1173.573147	-288.736199	149.673757	1141.495766	-48.479783	-11.516943	1234.570720	-116.654347	-23.075956	1245.649309	-209.830134	41.717280	1071.880912	-1.909850	83.443156	1131.193695	-370.256133	120.628459	916.118829	3.442790	175.253773	845.360222	-2.299184	187.291331	760.936418	-18.728890	208.977706	860.231688	-8.128895	237.492204	654.982510	-40.619146	213.326111	642.702963	-148.058733	206.298819	525.009953	-10.918539	234.742593	442.275126	-30.122994	217.860317	357.787188	-40.490087	263.794723	449.095668	-58.969174	220.116416	237.010338	-52.634039	233.256704	262.479326	-140.917794	147.054635	207.690807	-100.962102	446.901480	200.266664	-100.414960	356.832872	165.460750	-35.460387	194.492186	1064.177573	-366.876648	279.911780	1047.932932	-356.011716	292.327216	1075.824802	-335.047277	348.139597	991.204581	-359.703350	430.513450	895.312228	-340.670810	422.677263	855.102964	-233.851097	131.560837	609.537658	-382.767074	163.314597	602.548520	-299.335326	62.227514	620.689599	-345.110250	202.110162	460.733966	-412.498506	349.981380	807.555225	-370.614982	300.820807	736.681570	-365.567847	223.649814	695.731573	-373.779937	319.081118	716.587853	-337.605099	285.151930	436.173382	-342.619499	-216.420150	919.750107	-234.401470	-6.700739	85.633590	-425.830893	-9.534640	80.351916	-27.556542	
754	3.7700	532.310748	1384.056028	-103.346655	491.249528	1313.152845	-428.960608	481.002562	1441.181029	-272.198912	445.251372	1286.526470	-240.031646	583.150073	1163.096608	49.825465	747.543668	930.045281	-45.353571	504.409567	1042.834667	-516.007649	733.477006	923.138118	-397.282343	-44.467330	1198.124948	-169.835312	93.233170	1215.421814	-328.515429	133.542840	1210.888605	-13.738840	131.269895	1175.115791	-287.180032	151.994845	1140.895303	-47.956328	-8.893930	1235.451567	-113.756971	-22.785789	1247.429592	-206.638364	42.858625	1072.586306	-0.276362	84.227486	1136.206531	-369.847122	117.617437	915.018168	4.009555	170.459060	843.357578	0.071281	180.469390	758.670656	-16.116501	204.796996	857.295915	-6.037162	227.932704	651.736727	-39.365605	202.900500	639.972322	-146.787747	196.688898	521.773984	-9.278663	225.677257	439.248572	-28.586704	208.701214	354.792355	-39.520240	253.824555	446.355548	-57.634919	211.820149	233.839708	-52.091269	225.035530	259.645846	-140.070575	138.612427	205.998612	-100.334746	438.286764	193.216746	-100.575693	347.854182	160.063176	-35.404789	194.037295	1070.059018	-365.004362	279.766460	1054.947387	-355.049480	292.110664	1082.827105	-333.091706	348.911002	998.912844	-359.176924	432.847335	903.355348	-341.561829	426.176810	862.575346	-234.616481	137.764780	613.800689	-382.686540	169.341124	607.542860	-299.560280	67.541695	623.352520	-345.022789	211.210226	467.040083	-412.456503	353.679096	814.877586	-371.027851	305.498534	743.329150	-365.884095	228.584475	701.580840	-374.021368	324.034320	723.160462	-338.264319	294.504827	444.290425	-342.354496	-210.400966	918.931161	-225.878278	-6.721802	85.620087	-425.880916	-9.531751	80.338269	-27.521265	
755	3.7750	532.586927	1384.307148	-108.722041	489.566954	1313.631249	-432.035295	481.100930	1441.006973	-275.166682	444.859030	1286.502150	-242.825462	585.627700	1164.935613	48.238553	748.678938	930.256424	-45.485005	502.837995	1041.850603	-515.699376	732.943943	923.560030	-397.251202	-43.537397	1199.791260	-167.193058	92.090977	1217.534258	-326.923083	136.792652	1210.694524	-12.789577	130.899969	1176.578754	-285.801375	153.999525	1140.221685	-47.480748	-6.257454	1236.491756	-111.180664	-22.381284	1249.158502	-203.630702	43.973757	1073.364199	1.302026	84.329277	1140.697863	-368.436507	114.737841	914.759248	6.428281	165.914580	841.809142	2.435284	173.818944	756.616940	-14.418708	200.621452	855.068818	-3.915648	218.978365	649.296603	-37.666662	194.893812	637.110870	-145.862393	187.272448	519.361147	-8.169427	216.186377	436.979346	-27.656701	199.739833	352.536937	-38.666533	245.121645	444.163328	-55.779358	203.419742	231.595957	-51.557344	216.856299	257.465798	-139.242328	130.046127	204.794882	-99.933374	429.555164	186.968015	-100.787369	338.524881	155.475383	-35.332910	193.245317	1075.786647	-363.080891	279.353578	1061.708564	-354.514210	291.539443	1089.344030	-331.692303	348.993174	1006.321484	-359.578589	434.802679	911.035060	-342.734584	429.231665	870.139902	-235.419087	144.382169	617.284281	-382.725530	175.598519	611.745803	-299.842750	73.197613	625.415126	-345.446414	220.598144	472.416412	-412.454046	357.515827	821.487477	-371.871985	310.246228	749.267599	-366.577350	233.805411	706.592656	-374.541252	329.159755	729.225491	-339.190192	304.326236	451.645625	-342.263404	-209.998302	918.730556	-225.235010	-6.732183	85.656442	-425.847811	-9.547502	80.337932	-27.503668	
756	3.7800	532.740402	1384.393994	-114.000809	487.981683	1314.034239	-435.076234	481.316825	1440.855436	-277.852945	444.361426	1286.517090	-245.520285	588.217469	1166.466646	46.710693	749.953234	930.505395	-44.792929	501.373142	1040.949724	-515.391266	732.353179	923.826657	-397.272800	-43.030868	1201.637388	-164.820283	90.990165	1219.627946	-325.530746	139.715840	1210.853187	-12.657197	130.604974	1177.953769	-284.718099	156.178173	1139.433512	-46.603038	-4.290446	1237.921514	-108.535931	-21.926166	1251.002149	-201.090841	45.031705	1074.295133	2.957402	83.802100	1144.527561	-365.426967	112.027537	915.008119	8.967291	161.782249	840.923096	4.645487	167.575458	755.366320	-12.337453	196.776907	853.375760	-1.862983	210.866865	647.451900	-36.200961	187.540709	635.520494	-144.873490	178.671453	517.765589	-6.997105	207.583120	435.464215	-26.667036	191.138506	351.066076	-37.866165	236.788838	442.730050	-54.569631	194.816335	230.028126	-51.004620	208.711363	255.986722	-138.446400	121.276458	204.380148	-99.533312	420.480677	181.155003	-100.917862	329.043210	151.320132	-35.324856	192.432423	1081.443636	-362.008575	278.726769	1067.974092	-354.564660	290.904537	1094.887893	-330.516857	348.467177	1013.112320	-361.079267	436.326836	918.254700	-344.240458	432.915309	877.212032	-238.783185	151.186502	619.986621	-383.056614	182.322480	614.984948	-300.366658	79.040257	626.710087	-346.053451	230.142868	477.131930	-412.617269	361.456729	827.352562	-373.160557	315.090560	754.578137	-367.578335	239.252011	710.834030	-375.297683	334.417869	734.798830	-340.218117	314.344714	458.430783	-342.271044	-210.144005	918.646473	-224.999114	-6.759362	85.757538	-425.747797	-9.584279	80.336406	-27.487973	
